<mxfile host="app.diagrams.net" modified="2023-05-02T11:34:54.448Z" agent="Mozilla/5.0 (X11; Linux x86_64) AppleWebKit/537.36 (KHTML, like Gecko) Chrome/112.0.0.0 Safari/537.36" etag="8OwOLQE4IiYkFZub1Yhm" version="21.2.3" type="github">
  <diagram name="Page-1" id="BDtwckFy7g2p-0U97reW">
    <mxGraphModel dx="1050" dy="586" grid="1" gridSize="10" guides="1" tooltips="1" connect="1" arrows="1" fold="1" page="1" pageScale="1" pageWidth="850" pageHeight="1100" math="0" shadow="0">
      <root>
        <mxCell id="0" />
        <mxCell id="1" parent="0" />
        <mxCell id="8_JKzZSkhXZ16DIAR2Hv-4" value="" style="edgeStyle=orthogonalEdgeStyle;rounded=0;orthogonalLoop=1;jettySize=auto;html=1;" edge="1" parent="1" source="8_JKzZSkhXZ16DIAR2Hv-2" target="8_JKzZSkhXZ16DIAR2Hv-3">
          <mxGeometry relative="1" as="geometry">
            <Array as="points">
              <mxPoint x="420" y="150" />
              <mxPoint x="420" y="150" />
            </Array>
          </mxGeometry>
        </mxCell>
        <mxCell id="8_JKzZSkhXZ16DIAR2Hv-5" value="submsg" style="edgeLabel;html=1;align=center;verticalAlign=middle;resizable=0;points=[];" vertex="1" connectable="0" parent="8_JKzZSkhXZ16DIAR2Hv-4">
          <mxGeometry x="-0.255" y="3" relative="1" as="geometry">
            <mxPoint x="-3" as="offset" />
          </mxGeometry>
        </mxCell>
        <mxCell id="8_JKzZSkhXZ16DIAR2Hv-2" value="/cmd_vel" style="rounded=0;whiteSpace=wrap;html=1;" vertex="1" parent="1">
          <mxGeometry x="360" y="60" width="120" height="60" as="geometry" />
        </mxCell>
        <mxCell id="8_JKzZSkhXZ16DIAR2Hv-9" value="" style="edgeStyle=orthogonalEdgeStyle;rounded=0;orthogonalLoop=1;jettySize=auto;html=1;" edge="1" parent="1" source="8_JKzZSkhXZ16DIAR2Hv-3" target="8_JKzZSkhXZ16DIAR2Hv-8">
          <mxGeometry relative="1" as="geometry" />
        </mxCell>
        <mxCell id="8_JKzZSkhXZ16DIAR2Hv-3" value="self.submsg = submsg" style="whiteSpace=wrap;html=1;rounded=0;" vertex="1" parent="1">
          <mxGeometry x="360" y="200" width="120" height="60" as="geometry" />
        </mxCell>
        <mxCell id="8_JKzZSkhXZ16DIAR2Hv-12" value="" style="edgeStyle=orthogonalEdgeStyle;rounded=0;orthogonalLoop=1;jettySize=auto;html=1;" edge="1" parent="1" source="8_JKzZSkhXZ16DIAR2Hv-6" target="8_JKzZSkhXZ16DIAR2Hv-11">
          <mxGeometry relative="1" as="geometry" />
        </mxCell>
        <mxCell id="8_JKzZSkhXZ16DIAR2Hv-14" value="self.i = self.i + 1&amp;nbsp;" style="edgeLabel;html=1;align=center;verticalAlign=middle;resizable=0;points=[];" vertex="1" connectable="0" parent="8_JKzZSkhXZ16DIAR2Hv-12">
          <mxGeometry x="-0.264" y="2" relative="1" as="geometry">
            <mxPoint as="offset" />
          </mxGeometry>
        </mxCell>
        <mxCell id="8_JKzZSkhXZ16DIAR2Hv-6" value="self.array_linear_x[self.i] = self.submsg.linear.x&lt;br&gt;&lt;br&gt;self.array_angular_z[self.i] = self.submsg.angular.z" style="whiteSpace=wrap;html=1;rounded=0;" vertex="1" parent="1">
          <mxGeometry x="310" y="460" width="220" height="150" as="geometry" />
        </mxCell>
        <mxCell id="8_JKzZSkhXZ16DIAR2Hv-10" value="" style="edgeStyle=orthogonalEdgeStyle;rounded=0;orthogonalLoop=1;jettySize=auto;html=1;" edge="1" parent="1" source="8_JKzZSkhXZ16DIAR2Hv-8" target="8_JKzZSkhXZ16DIAR2Hv-6">
          <mxGeometry relative="1" as="geometry" />
        </mxCell>
        <mxCell id="8_JKzZSkhXZ16DIAR2Hv-8" value="&lt;div&gt;pubmsg.linear.x = self.array_linear_x[self.i]&amp;nbsp;&lt;/div&gt;&lt;div&gt;&lt;br&gt;&lt;/div&gt;&lt;div&gt;&amp;nbsp; &amp;nbsp; &amp;nbsp; &amp;nbsp; pubmsg.angular.z = self.array_angular_z[self.i]&lt;/div&gt;" style="rounded=0;whiteSpace=wrap;html=1;" vertex="1" parent="1">
          <mxGeometry x="315" y="290" width="210" height="120" as="geometry" />
        </mxCell>
        <mxCell id="8_JKzZSkhXZ16DIAR2Hv-16" value="" style="edgeStyle=orthogonalEdgeStyle;rounded=0;orthogonalLoop=1;jettySize=auto;html=1;" edge="1" parent="1" source="8_JKzZSkhXZ16DIAR2Hv-11" target="8_JKzZSkhXZ16DIAR2Hv-15">
          <mxGeometry relative="1" as="geometry">
            <Array as="points">
              <mxPoint x="420" y="840" />
              <mxPoint x="420" y="840" />
            </Array>
          </mxGeometry>
        </mxCell>
        <mxCell id="8_JKzZSkhXZ16DIAR2Hv-17" value="Yes" style="edgeLabel;html=1;align=center;verticalAlign=middle;resizable=0;points=[];" vertex="1" connectable="0" parent="8_JKzZSkhXZ16DIAR2Hv-16">
          <mxGeometry x="-0.2727" relative="1" as="geometry">
            <mxPoint as="offset" />
          </mxGeometry>
        </mxCell>
        <mxCell id="8_JKzZSkhXZ16DIAR2Hv-11" value="if self.i == self.delay :" style="whiteSpace=wrap;html=1;rounded=0;" vertex="1" parent="1">
          <mxGeometry x="340" y="740" width="160" height="65" as="geometry" />
        </mxCell>
        <mxCell id="8_JKzZSkhXZ16DIAR2Hv-18" style="edgeStyle=orthogonalEdgeStyle;rounded=0;orthogonalLoop=1;jettySize=auto;html=1;exitX=0.5;exitY=1;exitDx=0;exitDy=0;entryX=0.5;entryY=0;entryDx=0;entryDy=0;" edge="1" parent="1" source="8_JKzZSkhXZ16DIAR2Hv-15" target="8_JKzZSkhXZ16DIAR2Hv-2">
          <mxGeometry relative="1" as="geometry">
            <Array as="points">
              <mxPoint x="420" y="968" />
              <mxPoint x="70" y="968" />
              <mxPoint x="70" y="40" />
              <mxPoint x="420" y="40" />
            </Array>
          </mxGeometry>
        </mxCell>
        <mxCell id="8_JKzZSkhXZ16DIAR2Hv-15" value="self.i = 0" style="whiteSpace=wrap;html=1;rounded=0;" vertex="1" parent="1">
          <mxGeometry x="360" y="887.5" width="120" height="60" as="geometry" />
        </mxCell>
      </root>
    </mxGraphModel>
  </diagram>
</mxfile>
